<svg version="1.1" id="Layer_1" xmlns="http://www.w3.org/2000/svg" xmlns:xlink="http://www.w3.org/1999/xlink" x="0px" y="0px"
	 width="100%" viewBox="0 0 128 128" enable-background="new 0 0 128 128" xml:space="preserve">
<path fill="#FFFFFF" opacity="1.000000" stroke="none" 
	d="
M129.000000,49.000000 
	C129.000000,59.354229 129.000000,69.708458 128.663788,80.234894 
	C127.777367,81.858200 127.214325,83.304565 126.678864,84.761078 
	C118.841782,106.078636 104.668015,120.750343 82.458755,127.068817 
	C81.839493,127.244995 81.480408,128.335724 81.000000,129.000000 
	C70.645775,129.000000 60.291546,129.000000 49.765106,128.663788 
	C48.141800,127.777359 46.695423,127.214317 45.238907,126.678848 
	C23.921358,118.841766 9.249657,104.668015 2.931208,82.458740 
	C2.755031,81.839470 1.664285,81.480400 1.000001,81.000000 
	C1.000000,70.645775 1.000000,60.291546 1.336209,49.765106 
	C2.222632,48.141808 2.785672,46.695442 3.321136,45.238934 
	C11.158214,23.921368 25.331987,9.249670 47.541260,2.931203 
	C48.160522,2.755023 48.519596,1.664281 49.000000,0.999999 
	C59.354229,1.000000 69.708458,1.000000 80.234894,1.336211 
	C81.858192,2.222635 83.304558,2.785672 84.761063,3.321133 
	C106.078629,11.158215 120.750343,25.331984 127.068810,47.541256 
	C127.244980,48.160522 128.335724,48.519596 129.000000,49.000000 
M107.037354,32.413589 
	C105.696373,30.781151 104.489899,29.012196 102.993317,27.537685 
	C90.043205,14.778549 74.359543,9.256135 56.529202,12.186360 
	C41.424622,14.668637 28.685551,22.377203 20.354959,35.474579 
	C12.903842,47.189247 9.396667,60.416744 12.260202,74.287849 
	C15.195980,88.508896 22.130856,100.787415 34.581707,108.934959 
	C47.771530,117.566093 62.339962,121.132607 77.836800,116.876709 
	C92.767410,112.776314 104.640091,104.336792 112.040634,90.178047 
	C117.526619,79.682259 119.552116,68.578049 117.852242,57.067020 
	C116.557281,48.297981 113.329506,39.989170 107.037354,32.413589 
z"/>
<path fill="#000000" opacity="1.000000" stroke="none" 
	d="
M48.531342,0.999999 
	C48.519596,1.664281 48.160522,2.755023 47.541260,2.931203 
	C25.331987,9.249670 11.158214,23.921368 3.321136,45.238934 
	C2.785672,46.695442 2.222632,48.141808 1.336209,49.296448 
	C1.000000,33.073269 1.000000,17.146536 1.000000,1.000000 
	C16.686876,1.000000 32.374779,1.000000 48.531342,0.999999 
z"/>
<path fill="#000000" opacity="1.000000" stroke="none" 
	d="
M129.000000,48.531342 
	C128.335724,48.519596 127.244980,48.160522 127.068810,47.541256 
	C120.750343,25.331984 106.078629,11.158215 84.761063,3.321133 
	C83.304558,2.785672 81.858192,2.222635 80.703552,1.336211 
	C96.926735,1.000000 112.853462,1.000000 129.000000,1.000000 
	C129.000000,16.686876 129.000000,32.374779 129.000000,48.531342 
z"/>
<path fill="#000000" opacity="1.000000" stroke="none" 
	d="
M1.000001,81.468658 
	C1.664285,81.480400 2.755031,81.839470 2.931208,82.458740 
	C9.249657,104.668015 23.921358,118.841766 45.238907,126.678848 
	C46.695423,127.214317 48.141800,127.777359 49.296448,128.663788 
	C33.073265,129.000000 17.146532,129.000000 1.000000,129.000000 
	C1.000000,113.313126 1.000000,97.625221 1.000001,81.468658 
z"/>
<path fill="#000000" opacity="1.000000" stroke="none" 
	d="
M81.468658,129.000000 
	C81.480408,128.335724 81.839493,127.244995 82.458755,127.068817 
	C104.668015,120.750343 118.841782,106.078636 126.678864,84.761078 
	C127.214325,83.304565 127.777367,81.858200 128.663788,80.703552 
	C129.000000,96.926735 129.000000,112.853462 129.000000,129.000000 
	C113.313126,129.000000 97.625221,129.000000 81.468658,129.000000 
z"/>
<path fill="#000000" opacity="1.000000" stroke="none" 
	d="
M107.264847,32.702236 
	C113.329506,39.989170 116.557281,48.297981 117.852242,57.067020 
	C119.552116,68.578049 117.526619,79.682259 112.040634,90.178047 
	C104.640091,104.336792 92.767410,112.776314 77.836800,116.876709 
	C62.339962,121.132607 47.771530,117.566093 34.581707,108.934959 
	C22.130856,100.787415 15.195980,88.508896 12.260202,74.287849 
	C9.396667,60.416744 12.903842,47.189247 20.354959,35.474579 
	C28.685551,22.377203 41.424622,14.668637 56.529202,12.186360 
	C74.359543,9.256135 90.043205,14.778549 102.993317,27.537685 
	C104.489899,29.012196 105.696373,30.781151 107.264847,32.702236 
M60.000000,76.573853 
	C60.000011,80.900131 60.209061,85.239494 59.939129,89.548866 
	C59.687279,93.569580 61.985001,94.967834 65.224808,94.898376 
	C68.267845,94.833130 70.225845,93.309196 70.073189,89.595024 
	C69.809181,83.171715 69.999962,76.729713 69.999962,69.999954 
	C76.605026,69.999954 82.728935,70.024521 88.852524,69.990234 
	C92.224358,69.971352 95.118637,69.434723 95.037270,64.949791 
	C94.958382,60.601360 92.781151,58.917667 88.636734,58.977352 
	C82.533188,59.065243 76.427429,59.000031 69.999985,59.000031 
	C69.999985,52.259323 69.755219,45.959465 70.088608,39.690353 
	C70.300323,35.709164 68.273575,34.118690 65.011086,34.108765 
	C61.742996,34.098820 59.714104,35.690319 59.913815,39.667160 
	C60.235023,46.063416 60.000015,52.487606 60.000015,59.000000 
	C53.681301,59.000000 48.032688,58.989750 42.384129,59.002846 
	C36.579750,59.016308 35.060719,60.277618 34.989788,64.927505 
	C34.910454,70.127960 38.586346,69.975471 42.123024,69.992310 
	C48.038902,70.020470 53.955021,70.000000 60.000000,70.000000 
	C60.000000,72.295616 60.000000,73.946686 60.000000,76.573853 
z"/>
<path fill="#FFFFFF" opacity="1.000000" stroke="none" 
	d="
M60.000000,76.085808 
	C60.000000,73.946686 60.000000,72.295616 60.000000,70.000000 
	C53.955021,70.000000 48.038902,70.020470 42.123024,69.992310 
	C38.586346,69.975471 34.910454,70.127960 34.989788,64.927505 
	C35.060719,60.277618 36.579750,59.016308 42.384129,59.002846 
	C48.032688,58.989750 53.681301,59.000000 60.000015,59.000000 
	C60.000015,52.487606 60.235023,46.063416 59.913815,39.667160 
	C59.714104,35.690319 61.742996,34.098820 65.011086,34.108765 
	C68.273575,34.118690 70.300323,35.709164 70.088608,39.690353 
	C69.755219,45.959465 69.999985,52.259323 69.999985,59.000031 
	C76.427429,59.000031 82.533188,59.065243 88.636734,58.977352 
	C92.781151,58.917667 94.958382,60.601360 95.037270,64.949791 
	C95.118637,69.434723 92.224358,69.971352 88.852524,69.990234 
	C82.728935,70.024521 76.605026,69.999954 69.999962,69.999954 
	C69.999962,76.729713 69.809181,83.171715 70.073189,89.595024 
	C70.225845,93.309196 68.267845,94.833130 65.224808,94.898376 
	C61.985001,94.967834 59.687279,93.569580 59.939129,89.548866 
	C60.209061,85.239494 60.000011,80.900131 60.000000,76.085808 
z"/>
</svg>